<svg id="Layer_1" data-name="Layer 1" xmlns="http://www.w3.org/2000/svg" viewBox="0 0 1024 187.02"><defs><style>.cls-1{fill:#fff;}</style></defs><path class="cls-1" d="M0,125.59H17.06c1.14,29.35,20.71,46.64,54.61,46.64,32.76,0,51-14.79,51-39.81,0-57.11-118.08-5.69-118.08-83.5C4.55,21.16,31.4,0,70.3,0c39.36,0,66.89,23.21,66.89,56H120.81c-2-25.94-20.25-41.18-51.19-41.18s-48,14.1-48,38.22c0,52.56,118.09,5.46,118.09,79.86,0,30.26-23.89,54.15-68.94,54.15C28.21,187,0,164.5,0,125.59Z"/><path class="cls-1" d="M271,183.38H255V160.86c-8.65,15.69-23,26.16-42.78,26.16-28.21,0-43-16.84-43-48.92v-73h15.93v72.81c0,21.61,10.47,35.49,29.35,35.49,24.12,0,40.5-22.07,40.5-51.42V65.07H271Z"/><path class="cls-1" d="M305.08,65.07H321V87.59c8.64-15.69,23-26.16,42.77-26.16,28.21,0,43,16.84,43,48.92v73H390.85V110.57c0-21.61-10.46-35.49-29.35-35.49C337.39,75.08,321,97.15,321,126.5v56.88H305.08Z"/><path class="cls-1" d="M454.55,162.9v20.48H438.62V3.64h15.93V85.55c8.42-15,22.29-24.12,38.9-24.12,31.63,0,54.15,25.94,54.15,62.34,0,37.09-22.52,63.25-54.15,63.25C476.84,187.25,463,177.92,454.55,162.9ZM531.68,124c0-28.67-16.16-48.92-39.14-48.92S453.18,95.33,453.18,124c0,28.89,16.38,49.37,39.36,49.37S531.68,152.89,531.68,124Z"/><path class="cls-1" d="M566.93,124c0-36.63,24.35-62.57,58.93-62.57,26.85,0,51.65,19.79,51.65,60.29v8h-94c1.59,25.71,17.29,43.68,41.86,43.68,18.89,0,31.63-11.38,34.36-21.84h15.92C672,169.73,652.93,187,625.86,187,591.28,187,566.93,160.86,566.93,124Zm94.42-9.1c-.91-23.89-16.15-39.82-36-39.82-23.2,0-38.45,15.7-41.63,39.82Z"/><path class="cls-1" d="M703.89,152.21c0-20.93,17.52-33,53.24-36.63l29.58-3.19v-8.87c.22-18-9.33-28.44-31.63-28.44-21.16,0-33,10.92-33,29.12H707.76c0-26.84,17.29-42.77,47.78-42.77,31.39,0,47.09,15.7,47.09,42.09V159c0,9.78,1.82,13.19,11.15,12.28l-.45,11.15c-18.66,6.14-26.17-2.5-26.62-23C780.11,177,764,187,742.11,187,717.31,187,703.89,170.18,703.89,152.21Zm82.82-25.71-28,2.73c-26.16,2.73-38.9,10.47-38.9,23.21,0,9.1,5.68,20.93,25.93,20.93C768.05,173.37,786.71,152.66,786.71,126.5Z"/><path class="cls-1" d="M836.52,65.07h15.93V87.59c8.65-15.69,23-26.16,42.77-26.16,21.39,0,35,9.56,40.5,28.21,9.1-16.83,24.8-28.21,45.28-28.21,28.21,0,43,16.84,43,48.92v73h-15.93V110.57c0-21.61-10.46-35.49-29.35-35.49-24.11,0-40.49,22.07-40.49,51.42v56.88H922.3V110.57C922.3,89,911.83,75.08,893,75.08c-24.12,0-40.5,22.07-40.5,51.42v56.88H836.52Z"/></svg>