<svg xmlns="http://www.w3.org/2000/svg" viewBox="0 0 530.06 212.19"><defs><style>.cls-1{fill:none;}</style></defs><g id="Layer_1" data-name="Layer 1"><circle class="cls-1" cx="319.9" cy="106.09" r="35.87"/><polygon points="315.4 40.02 319.9 0 324.4 40.02 315.4 40.02"/><polygon points="338.27 42.47 356.19 6.4 346.73 45.55 338.27 42.47"/><polygon points="358.93 52.59 388.1 24.82 365.82 58.37 358.93 52.59"/><polygon points="365.82 153.82 388.1 187.37 358.93 159.6 365.82 153.82"/><polygon points="346.73 166.65 356.19 205.79 338.27 169.72 346.73 166.65"/><polygon points="324.4 172.17 319.9 212.19 315.4 172.17 324.4 172.17"/><polygon points="301.54 169.72 283.62 205.79 293.08 166.65 301.54 169.72"/><polygon points="280.88 159.6 251.71 187.37 273.99 153.82 280.88 159.6"/><polygon points="273.99 58.37 251.71 24.82 280.88 52.59 273.99 58.37"/><polygon points="293.08 45.55 283.62 6.4 301.54 42.47 293.08 45.55"/><path d="M0,112.28,9.94,110c2.44,15.15,10.8,23.4,27.36,23.4,15.12,0,21.6-6.3,21.6-15.75,0-9.6-6-14.25-23.76-17.55C11.66,95.78,4,86.63,4,73.58c0-14.7,10.23-24.3,30.67-24.3S63.65,59.78,67.1,76L56.73,78.23c-2.88-13-8.06-19.8-22.46-19.8-13.53,0-20,5.55-20,14.55,0,8.25,4.6,13.8,24.33,17.85,24.34,4.8,30.67,13.65,30.67,26.1,0,15.3-9.36,25.65-32.25,25.65C13.39,142.43,2.45,130.43,0,112.28Z"/><path d="M126.29,122.93h-1c-3.6,12-13,19.65-24.91,19.65-15.7,0-22.61-10.5-22.61-25.8V71.18h9.93v43.5c0,10.5,4,18.45,16.13,18.45,13.39,0,22.32-8.7,22.32-21.75V71.18h9.94v69.75h-9.79Z"/><path d="M159.26,140.93h-9.93V71.18h9.79v18h1.15c3.6-12,12.81-19.65,24.77-19.65,15.69,0,22.6,10.5,22.6,25.8v45.6h-9.93V97.58c0-10.5-4-18.6-16.13-18.6-13.39,0-22.32,8.7-22.32,21.75Z"/><path d="M230.11,89.93H231c3.32-11.85,10.95-20.4,24.63-20.4,17.56,0,27.07,13,27.07,36.6s-9.94,36.45-26.35,36.45c-13.68,0-22.32-8.7-25.49-20.7h-.72v19.05h-9.94V44.64h9.94Zm42.62,16.2c0-18.45-6.62-27.15-20.59-27.15-13.39,0-22,9.45-22,24.6v5.25c0,14.55,8.64,24.6,22,24.6C266,133.43,272.73,124.43,272.73,106.13Z"/><path d="M287,106.28c0-23.1,13.1-36.75,32.83-36.75s29.81,12.9,29.81,32.1a71.81,71.81,0,0,1-.29,7.35H296.92c.87,15.6,8.79,24.75,23.19,24.75,13.24,0,17.85-7.2,20.3-16l8.78,2.7c-3.31,13.8-12.24,22.2-29.08,22.2C299.37,142.58,287,129.08,287,106.28ZM297.07,101h43.34c-.58-14.55-6.91-23-20.88-23C306.57,78.08,298.51,85.73,297.07,101Z"/><path d="M401.32,124.28h-1.15c-3.46,11.85-12.53,18.15-24.62,18.15-13.11,0-21.17-5.85-21.17-19.2,0-11.55,7.63-20.4,23.47-20.4h23V96.38c0-11.55-4.32-18-16.42-18-10.08,0-15.69,5.25-18,15.45L357,91.28c3-13.65,12.53-21.6,27.65-21.6,18.14,0,26.06,9.3,26.06,26.55v44.7h-9.36Zm-.43-9v-4.8H379c-9.65,0-15,4-15,11.85,0,6,3.6,11.55,14.25,11.55C392,133.88,400.89,125.93,400.89,115.28Z"/><path d="M433.29,140.93h-9.94V71.18h9.8v18h1.15C438,77,446.82,69.53,459.21,69.53c13.39,0,20.16,8.25,21.45,20.85h1.44c3-12.6,11.09-20.85,25.2-20.85,15.56,0,22.76,10.5,22.76,25.8v45.6h-9.94V97.58c0-10.5-4.46-18.6-16.13-18.6-13.68,0-22.32,8.7-22.32,21.75v40.2h-9.93V97.58c0-10.5-4.47-18.6-16.13-18.6-13.39,0-22.32,8.7-22.32,21.75Z"/></g></svg>